# xmcd
#
# Track frame offsets: 
#        150
#        6908
#        65997
#        91775
#        125174
#        162346
#        227401
#
# Disc length: 3366 seconds
#
# Revision: 0
# Processed by: cddbd v1.5.2PL0 Copyright (c) Steve Scherf et al.
# Submitted via: ExactAudioCopyFreeDBPlugin 1.0
#
DISCID=570d2407
DTITLE=Медвежья гора - На севере
DYEAR=2012
DGENRE=Ethnic
TTITLE0=Зачин
TTITLE1=Илья Муромец и Сокольник
TTITLE2=Поморская быль
TTITLE3=Егорий храбрый и Змей
TTITLE4=Молодец во темнице
TTITLE5=Фатен Блудович
TTITLE6=Ворожея
EXTD=
EXTT0=
EXTT1=
EXTT2=
EXTT3=
EXTT4=
EXTT5=
EXTT6=
PLAYORDER=
